<svg width="137" height="73" viewBox="0 0 137 73" fill="none" xmlns="http://www.w3.org/2000/svg">
<g clip-path="url(#clip0_2_1064)">
<path d="M134.926 60.4452C134.904 56.7544 134.892 53.0533 134.871 49.3625C131.919 48.9536 127.465 48.1757 124.523 47.7765" stroke="black" stroke-width="3" stroke-miterlimit="10" stroke-linecap="round"/>
<path d="M134.926 60.4452C134.904 56.7544 134.892 53.0533 134.871 49.3625C131.919 48.9536 127.465 48.1757 124.523 47.7765" stroke="#00999E" stroke-width="3" stroke-miterlimit="10" stroke-linecap="round"/>
<path d="M133.873 50.1803C118.382 68.1831 95.4611 74.6359 72.2373 63.9106C65.8639 60.9647 55.7617 54.4801 51.2039 48.8033C46.3349 42.7249 43.9906 34.9664 43.4162 27.5394C42.7993 19.6634 44.1393 11.6435 48.5949 5.96885C49.5132 4.80316 50.6333 3.70194 52.1175 3.47103C55.4942 2.93797 58.4844 6.90723 59.8719 10.4304C64.4548 22.1088 62.1624 35.5069 54.2606 43.1871C49.3207 47.9848 42.3644 50.397 35.1561 50.1952C28.5687 50.0163 22.2849 47.4181 17.1685 43.2572C12.4205 39.3963 5.52247 32.6535 1.62304 23.6373" stroke="black" stroke-width="3" stroke-miterlimit="10" stroke-linecap="round"/>
<path d="M133.873 50.1803C118.382 68.1831 95.4611 74.6359 72.2373 63.9106C65.8639 60.9647 55.7617 54.4801 51.2039 48.8033C46.3349 42.7249 43.9906 34.9664 43.4162 27.5394C42.7993 19.6634 44.1393 11.6435 48.5949 5.96885C49.5132 4.80316 50.6333 3.70194 52.1175 3.47103C55.4942 2.93797 58.4844 6.90723 59.8719 10.4304C64.4548 22.1088 62.1624 35.5069 54.2606 43.1871C49.3207 47.9848 42.3644 50.397 35.1561 50.1952C28.5687 50.0163 22.2849 47.4181 17.1685 43.2572C12.4205 39.3963 5.52247 32.6535 1.62304 23.6373" stroke="#00999E" stroke-width="3" stroke-miterlimit="10" stroke-linecap="round"/>
</g>
<defs>
<clipPath id="clip0_2_1064">
<rect width="134.51" height="68.86" fill="white" transform="translate(0.0786133 3.8623) rotate(-1.57591)"/>
</clipPath>
</defs>
</svg>
